<svg width="18" height="18" viewBox="0 0 18 18" fill="none" xmlns="http://www.w3.org/2000/svg">
<path d="M7.3296 1.17195C7.78725 -0.389672 9.99937 -0.389674 10.457 1.17194L11.3549 4.23553C11.5583 4.92977 12.1951 5.40675 12.9186 5.40675H16.1541C17.6917 5.40675 18.3737 7.34069 17.1763 8.30522L14.2792 10.6389C13.7661 11.0522 13.5524 11.7339 13.7377 12.3662L14.7746 15.9045C15.2234 17.4359 13.4315 18.6328 12.1887 17.6318L9.91551 15.8007C9.3188 15.32 8.46783 15.32 7.87112 15.8007L5.5979 17.6318C4.35517 18.6328 2.56321 17.4359 3.012 15.9045L4.04897 12.3662C4.23427 11.7339 4.02056 11.0522 3.50745 10.6389L0.610332 8.30522C-0.587088 7.34068 0.0949463 5.40675 1.63253 5.40675H4.86805C5.59149 5.40675 6.22831 4.92977 6.43177 4.23553L7.3296 1.17195Z" fill="#FDD836"/>
</svg>
