<svg width="33" height="33" viewBox="0 0 33 33" fill="none" xmlns="http://www.w3.org/2000/svg">
<path fill-rule="evenodd" clip-rule="evenodd" d="M24.7083 24.7083C25.111 24.3056 25.764 24.3056 26.1667 24.7083L29.6042 28.1458C30.0069 28.5485 30.0069 29.2015 29.6042 29.6042C29.2015 30.0069 28.5485 30.0069 28.1458 29.6042L24.7083 26.1667C24.3056 25.764 24.3056 25.111 24.7083 24.7083Z" fill="#1E363E"/>
<path fill-rule="evenodd" clip-rule="evenodd" d="M15.1977 25.583C20.9333 25.583 25.583 20.9333 25.583 15.1977C25.583 9.46213 20.9333 4.8125 15.1977 4.8125C9.46213 4.8125 4.8125 9.46213 4.8125 15.1977C4.8125 20.9333 9.46213 25.583 15.1977 25.583ZM15.1977 27.6455C22.0724 27.6455 27.6455 22.0724 27.6455 15.1977C27.6455 8.32304 22.0724 2.75 15.1977 2.75C8.32304 2.75 2.75 8.32304 2.75 15.1977C2.75 22.0724 8.32304 27.6455 15.1977 27.6455Z" fill="#1E363E"/>
</svg>
