<svg width="18" height="18" viewBox="0 0 18 18" fill="none" xmlns="http://www.w3.org/2000/svg">
<path d="M7.82578 1.31759C8.13825 0.251381 9.64872 0.251384 9.96118 1.31759L10.8588 4.38086C11.1268 5.2953 11.9656 5.92355 12.9184 5.9236H16.1544C17.2039 5.92382 17.6694 7.244 16.852 7.90251L13.9554 10.2358C13.2795 10.7803 12.9974 11.6787 13.2415 12.5116L14.2784 16.0504C14.5844 17.0957 13.3609 17.913 12.5126 17.2296L10.2398 15.3981C9.45389 14.765 8.33312 14.7651 7.54712 15.3981L5.27339 17.2296C4.425 17.9125 3.20248 17.0956 3.50853 16.0504L4.54543 12.5116C4.78948 11.6787 4.50749 10.7802 3.83161 10.2358L0.934934 7.90251C0.117386 7.24397 0.582803 5.9236 1.6326 5.9236H4.86852C5.82127 5.9234 6.66024 5.29519 6.9282 4.38086L7.82578 1.31759Z" fill="white" stroke="#BEBEBE"/>
</svg>
